<svg viewBox="0 0 19.749000000000002 20" xmlns:xlink="http://www.w3.org/1999/xlink" xmlns="http://www.w3.org/2000/svg" style="max-height: 500px" width="19.749000000000002" height="20"><path fill="rgb(238,238,238)" d="M 40.28 18.533 L 40.28 0 L 42.805 0 L 42.805 17.429 L 52.683 17.429 L 52.627 0.019 L 55.209 0 L 55.209 18.533 C 55.209 18.726 55.171 18.917 55.099 19.095 C 55.026 19.273 54.92 19.434 54.786 19.57 C 54.652 19.707 54.493 19.815 54.318 19.889 C 54.143 19.962 53.956 20 53.767 20 L 41.719 20 C 41.337 20 40.971 19.845 40.701 19.57 C 40.431 19.295 40.28 18.922 40.28 18.533 Z"/><path fill="rgb(238,238,238)" d="M 74.249 18.533 L 74.249 0 L 76.774 0 L 76.774 17.429 L 86.957 17.429 L 86.957 20 L 75.69 20 C 75.308 20 74.941 19.846 74.671 19.57 C 74.4 19.295 74.249 18.922 74.249 18.533 Z"/><path fill="rgb(238,238,238)" d="M 24.713 20 L 27.238 20 L 27.238 11.314 L 36.752 11.314 L 36.752 8.743 L 27.236 8.743 L 27.236 2.571 L 36.595 2.571 C 36.731 2.571 36.865 2.532 36.98 2.458 C 37.095 2.384 37.187 2.278 37.246 2.153 L 38.252 0 L 26.152 0 C 25.77 0.001 25.404 0.156 25.134 0.431 C 24.864 0.706 24.713 1.078 24.713 1.467 Z"/><path fill="rgb(238,238,238)" d="M 57.958 1.467 C 57.958 1.274 57.995 1.083 58.068 0.905 C 58.14 0.728 58.246 0.566 58.38 0.43 C 58.514 0.293 58.673 0.185 58.848 0.112 C 59.023 0.038 59.21 0 59.399 0 L 71.497 0 L 70.491 2.153 C 70.432 2.278 70.34 2.384 70.225 2.458 C 70.11 2.532 69.976 2.571 69.84 2.571 L 60.483 2.571 L 60.483 8.743 L 69.997 8.743 L 69.997 11.314 L 60.483 11.314 L 60.483 17.429 L 71.497 17.429 L 71.497 20 L 59.399 20 C 59.017 20 58.651 19.846 58.38 19.57 C 58.11 19.295 57.958 18.922 57.958 18.533 Z"/><path fill="rgb(0,219,125)" d="M 1.307 0 C 0.96 0 0.628 0.14 0.383 0.389 C 0.138 0.639 0 0.977 0 1.329 L 0 20 L 16.263 20 C 16.813 20 17.341 19.777 17.73 19.381 L 19.048 18.041 C 19.241 17.845 19.393 17.612 19.498 17.356 C 19.602 17.1 19.656 16.825 19.656 16.548 L 19.656 0 Z M 3.185 2.571 L 12.834 2.571 L 6.442 9.076 C 6.283 9.237 6.068 9.328 5.843 9.328 C 5.683 9.328 5.526 9.281 5.391 9.194 C 5.255 9.107 5.147 8.982 5.078 8.835 L 2.602 3.507 C 2.555 3.407 2.535 3.297 2.541 3.187 C 2.548 3.076 2.582 2.97 2.64 2.876 C 2.698 2.783 2.779 2.706 2.874 2.653 C 2.969 2.599 3.076 2.571 3.185 2.571 Z M 2.527 17.429 L 2.527 11.1 C 2.527 10.938 2.591 10.783 2.703 10.668 C 2.816 10.553 2.969 10.489 3.128 10.489 L 9.347 10.489 Z M 10.933 8.876 C 10.648 9.165 10.263 9.327 9.861 9.328 L 7.802 9.328 L 13.998 3.023 C 14.138 2.88 14.305 2.767 14.489 2.689 C 14.673 2.611 14.87 2.571 15.07 2.571 L 17.128 2.571 Z"/></svg>