<svg width="98" height="51" viewBox="0 0 98 51" fill="none" xmlns="http://www.w3.org/2000/svg"><path d="M1.136 47.22 0 50.5h98V0l-.68.576-1.223 4.416-.68.768-1.223-.384-1.36-1.92-.815.192-1.223 4.225-.816 2.688h-1.087l-1.088-2.496-.728-.192h-.767l-1.495 6.144-.407.384-.68.384-.68-1.344-1.087-8.065-.68-.96-.68.384-1.358 6.529-.816.768-1.495-1.152-.816-.96H75.03l-1.087 3.648-.68 1.344-1.36.384-1.087 1.92-.68.384-.679-.384-1.495-4.992-1.223-.384-1.495 5.184-.544.768-.816-.192-1.63-3.264-1.224-.192-.952-2.112-.68-1.536-.679-.384-.544.576-1.359 7.296-.407 1.152-.544.192-.68-1.92-1.359-10.176-.408-.768h-.272l-.68.576-1.087 5.76-.543 1.152-1.088.384-1.359 3.84-.408.576h-.68l-.815-.768-.815-1.728-.68-.384-1.087.96-.68 3.265-.68 1.152-.68.384-1.222-.96-.952-1.152-.951-.192-.408-.576-1.087-2.113-.68-.576-.68.576-1.087 8.257-.816 3.072h-.815l-1.223-2.112-.68-.384-1.087-.192-.952 2.88-.951 1.536-.544.192-1.087-2.304-1.224-.96-.815.384-1.631 8.64-.68.385-1.087-1.536-1.495-1.536h-.68l-.816-1.345-1.223-.575-.815.576-1.088 4.8-1.087.96-.68.384-.951.576-1.495.384-.816-.96-.951-2.112-1.224-.384-1.087-1.152-.951-.768-.544.192-.544 1.536-1.087 3.648-.68.768-.815-.192-1.04 7.858Z" fill="url(#a)"/><defs><linearGradient id="a" x1="150.47" y1="-39.337" x2="1.98" y2="53.661" gradientUnits="userSpaceOnUse"><stop stop-color="#69BFFD"/><stop offset="1" stop-color="#fff"/></linearGradient></defs></svg>
