<svg width="73" height="12" viewBox="0 0 73 12" fill="none" xmlns="http://www.w3.org/2000/svg">
  <path d="M1.32031 0.3125C1.63672 0.324219 1.90625 0.441406 2.12891 0.664062C2.35156 0.875 2.46875 1.13867 2.48047 1.45508V10.0684C2.41016 10.7715 2.02344 11.1523 1.32031 11.2109C0.992188 11.2109 0.705078 11.1055 0.458984 10.8945C0.224609 10.6719 0.107422 10.3965 0.107422 10.0684V1.45508C0.119141 1.12695 0.242188 0.857422 0.476562 0.646484C0.710938 0.423828 0.992188 0.3125 1.32031 0.3125ZM8.31641 10.9648C7.28516 10.9297 6.50586 10.6895 5.97852 10.2441C5.45117 9.78711 5.07031 9.27734 4.83594 8.71484C4.60156 8.14062 4.48438 7.56055 4.48438 6.97461C4.48438 6.36523 4.5957 5.7793 4.81836 5.2168C5.05273 4.64258 5.43359 4.13281 5.96094 3.6875C6.5 3.23047 7.17969 2.99609 8 2.98438H14.6797C15.0078 2.98438 15.2832 3.0957 15.5059 3.31836C15.7402 3.5293 15.8574 3.78711 15.8574 4.0918C15.8574 4.4082 15.7402 4.67773 15.5059 4.90039C15.2832 5.11133 15.0078 5.2168 14.6797 5.2168H8.10547C7.84766 5.2168 7.61914 5.30469 7.41992 5.48047C7.23242 5.65625 7.0918 5.88477 6.99805 6.16602C6.91602 6.44727 6.875 6.72266 6.875 6.99219C6.875 7.28516 6.91602 7.57227 6.99805 7.85352C7.0918 8.13477 7.23242 8.36328 7.41992 8.53906C7.61914 8.70312 7.84766 8.79102 8.10547 8.80273H14.6797C15.0078 8.80273 15.2832 8.9082 15.5059 9.11914C15.7402 9.33008 15.8574 9.58203 15.8574 9.875C15.8574 10.1797 15.7402 10.4375 15.5059 10.6484C15.2832 10.8594 15.0078 10.9648 14.6797 10.9648H8.31641ZM15.6465 6.93945C15.6465 7.16211 15.5469 7.35547 15.3477 7.51953C15.1719 7.67188 14.9492 7.74805 14.6797 7.74805H8.93164C8.66211 7.74805 8.43359 7.67188 8.24609 7.51953C8.05859 7.35547 7.96484 7.16211 7.96484 6.93945C7.96484 6.72852 8.05859 6.54102 8.24609 6.37695C8.43359 6.22461 8.66211 6.14844 8.93164 6.14844H14.6797C14.9492 6.14844 15.1777 6.23047 15.3652 6.39453C15.5527 6.54688 15.6465 6.72852 15.6465 6.93945ZM23.4863 2.7207C24.0957 2.7207 24.6934 2.79102 25.2793 2.93164C25.877 3.07227 26.4453 3.2832 26.9844 3.56445C27.5234 3.83398 27.998 4.19727 28.4082 4.6543C28.8301 5.11133 29.0586 5.65625 29.0938 6.28906V7.02734V10.0332C29.0234 10.7363 28.6367 11.1172 27.9336 11.1758C27.6055 11.1758 27.3184 11.0703 27.0723 10.8594C26.8379 10.6367 26.7207 10.3613 26.7207 10.0332V9.25977V6.83398C26.6973 6.4707 26.5566 6.17188 26.2988 5.9375C26.0527 5.69141 25.7715 5.49805 25.4551 5.35742C25.1504 5.2168 24.8281 5.11133 24.4883 5.04102C24.1602 4.9707 23.8262 4.93555 23.4863 4.93555C23.1465 4.93555 22.8066 4.9707 22.4668 5.04102C22.1387 5.11133 21.8164 5.2168 21.5 5.35742C21.1953 5.49805 20.9141 5.69141 20.6562 5.9375C20.4102 6.17188 20.2754 6.4707 20.252 6.83398V9.25977V10.0332C20.1934 10.7363 19.8125 11.1172 19.1094 11.1758C18.7812 11.1758 18.4941 11.0703 18.248 10.8594C18.0137 10.6367 17.8965 10.3613 17.8965 10.0332V7.02734V6.28906C17.9316 5.65625 18.1543 5.11133 18.5645 4.6543C18.9746 4.19727 19.4492 3.83398 19.9883 3.56445C20.5273 3.2832 21.0898 3.07227 21.6758 2.93164C22.2734 2.79102 22.877 2.7207 23.4863 2.7207ZM41.1172 1.45508C41.1875 0.751953 41.5742 0.371094 42.2773 0.3125C42.6055 0.3125 42.8867 0.423828 43.1211 0.646484C43.3672 0.857422 43.4902 1.12695 43.4902 1.45508V9.82227C43.4785 10.1504 43.3555 10.4258 43.1211 10.6484C42.8867 10.8594 42.6055 10.9648 42.2773 10.9648H34.8945C33.8633 10.9297 33.084 10.6895 32.5566 10.2441C32.0293 9.78711 31.6484 9.27734 31.4141 8.71484C31.1797 8.14062 31.0625 7.56055 31.0625 6.97461C31.0625 6.36523 31.1738 5.7793 31.3965 5.2168C31.6309 4.64258 32.0117 4.13281 32.5391 3.6875C33.0781 3.23047 33.7578 2.99609 34.5781 2.98438H39.0078C39.3359 2.98438 39.6113 3.10156 39.834 3.33594C40.0684 3.55859 40.1855 3.83398 40.1855 4.16211C40.1855 4.49023 40.0684 4.77148 39.834 5.00586C39.6113 5.22852 39.3359 5.33984 39.0078 5.33984H34.5078C34.2852 5.33984 34.0918 5.43359 33.9277 5.62109C33.7637 5.79688 33.6406 6.00781 33.5586 6.25391C33.4883 6.48828 33.4531 6.72266 33.4531 6.95703C33.4531 7.20312 33.4883 7.44922 33.5586 7.69531C33.6406 7.92969 33.7637 8.14062 33.9277 8.32812C34.0918 8.50391 34.2852 8.59766 34.5078 8.60938H40.6602C40.9648 8.59766 41.1172 8.44531 41.1172 8.15234V1.45508ZM55.25 0.59375C55.8477 0.605469 56.3809 0.792969 56.8496 1.15625C57.3184 1.51953 57.6934 1.95312 57.9746 2.45703C58.2676 2.96094 58.4844 3.49414 58.625 4.05664C58.7656 4.61914 58.8359 5.19336 58.8359 5.7793C58.8359 6.55273 58.7129 7.31445 58.4668 8.06445C58.2324 8.80273 57.8398 9.45898 57.2891 10.0332C56.75 10.6074 56.0703 10.918 55.25 10.9648H49.1152C48.2949 10.9297 47.6094 10.625 47.0586 10.0508C46.5078 9.47656 46.1152 8.81445 45.8809 8.06445C45.6582 7.31445 45.5469 6.55273 45.5469 5.7793C45.5469 5.00586 45.6641 4.25 45.8984 3.51172C46.1328 2.76172 46.5195 2.09961 47.0586 1.52539C47.6094 0.939453 48.2949 0.628906 49.1152 0.59375H49.4492H54.916H55.25ZM54.6523 8.60938C55.0977 8.58594 55.4668 8.42188 55.7598 8.11719C56.0645 7.80078 56.2812 7.4375 56.4102 7.02734C56.5391 6.61719 56.6035 6.20117 56.6035 5.7793C56.6035 5.35742 56.5332 4.94727 56.3926 4.54883C56.2637 4.13867 56.0527 3.77539 55.7598 3.45898C55.4668 3.14258 55.0977 2.97266 54.6523 2.94922H49.6602C49.2148 2.97266 48.8457 3.14258 48.5527 3.45898C48.2598 3.77539 48.043 4.13867 47.9023 4.54883C47.7734 4.94727 47.709 5.35742 47.709 5.7793C47.709 6.20117 47.7734 6.61719 47.9023 7.02734C48.0312 7.4375 48.2422 7.80078 48.5352 8.11719C48.8398 8.42188 49.2148 8.58594 49.6602 8.60938H54.6523ZM72.125 1.77148C72.125 2.09961 72.0078 2.375 71.7734 2.59766C71.5508 2.83203 71.2754 2.94922 70.9473 2.94922H63.916C63.6934 2.96094 63.5059 3.01367 63.3535 3.10742C63.2129 3.18945 63.1074 3.28906 63.0371 3.40625C62.9668 3.51172 62.9316 3.62305 62.9316 3.74023C62.9316 3.85742 62.9668 3.97461 63.0371 4.0918C63.1074 4.19727 63.2129 4.29688 63.3535 4.39062C63.5059 4.47266 63.6934 4.51953 63.916 4.53125H68.9082C69.7285 4.55469 70.4023 4.74805 70.9297 5.11133C71.4688 5.46289 71.8496 5.87305 72.0723 6.3418C72.3066 6.79883 72.4238 7.26758 72.4238 7.74805C72.4238 8.2168 72.3066 8.68555 72.0723 9.1543C71.8379 9.61133 71.457 10.0215 70.9297 10.3848C70.4023 10.7363 69.7285 10.9121 68.9082 10.9121H68.8027C68.7324 10.9238 68.6621 10.9297 68.5918 10.9297H61.9473C61.6191 10.9297 61.3379 10.8184 61.1035 10.5957C60.8809 10.3613 60.7695 10.0801 60.7695 9.75195C60.7695 9.42383 60.8867 9.14844 61.1211 8.92578C61.3438 8.69141 61.6191 8.57422 61.9473 8.57422H69.0137C69.2363 8.58594 69.418 8.54492 69.5586 8.45117C69.7109 8.35742 69.8223 8.25195 69.8926 8.13477C69.9629 8.00586 69.998 7.87695 69.998 7.74805C69.998 7.66602 69.9629 7.55469 69.8926 7.41406C69.8223 7.26172 69.7109 7.13867 69.5586 7.04492C69.418 6.95117 69.2363 6.89844 69.0137 6.88672H64.0215C63.2012 6.86328 62.5215 6.67578 61.9824 6.32422C61.4551 5.97266 61.0742 5.57422 60.8398 5.12891C60.6172 4.67188 60.5059 4.20898 60.5059 3.74023C60.5059 3.2832 60.623 2.83203 60.8574 2.38672C61.0918 1.92969 61.4727 1.52539 62 1.17383C62.5273 0.822266 63.2012 0.634766 64.0215 0.611328H64.127C64.1973 0.599609 64.2676 0.59375 64.3379 0.59375H70.9473C71.2754 0.59375 71.5508 0.710937 71.7734 0.945312C72.0078 1.16797 72.125 1.44336 72.125 1.77148Z" fill="white"/>
</svg>
