<svg width="20" height="20" viewBox="0 0 20 20" fill="none" xmlns="http://www.w3.org/2000/svg">
  <g clip-path="url(#clip0_374_855)">
    <path
      d="M10 20C15.5228 20 20 15.5228 20 10C20 4.47715 15.5228 0 10 0C4.47715 0 0 4.47715 0 10C0 15.5228 4.47715 20 10 20Z"
      fill="#F5F5F5"/>
    <path
      d="M14.5469 6.58984C14.5469 6.58984 13.2461 5.57031 11.707 5.45312L11.5703 5.73047C12.9609 6.07031 13.5977 6.55859 14.2656 7.15625C13.1172 6.57031 11.9805 6.01953 10.0039 6.01953C8.02734 6.01953 6.89062 6.57031 5.74219 7.15625C6.41016 6.55859 7.16797 6.01562 8.4375 5.73047L8.30078 5.45312C6.6875 5.60547 5.46094 6.58984 5.46094 6.58984C5.46094 6.58984 4.00781 8.69922 3.75781 12.8398C5.22266 14.5312 7.44922 14.543 7.44922 14.543L7.91406 13.9219C7.125 13.6484 6.23047 13.1562 5.46094 12.2695C6.37891 12.9648 7.76953 13.6914 10.0078 13.6914C12.2461 13.6914 13.6328 12.9688 14.5547 12.2695C13.7852 13.1562 12.8906 13.6484 12.1016 13.9219L12.5664 14.543C12.5664 14.543 14.793 14.5312 16.2578 12.8398C16 8.69922 14.5469 6.58984 14.5469 6.58984ZM8.15234 11.7031C7.60156 11.7031 7.15625 11.1953 7.15625 10.5664C7.15625 9.9375 7.60156 9.42969 8.15234 9.42969C8.70312 9.42969 9.14844 9.9375 9.14844 10.5664C9.14844 11.1953 8.70312 11.7031 8.15234 11.7031ZM11.8477 11.7031C11.2969 11.7031 10.8516 11.1953 10.8516 10.5664C10.8516 9.9375 11.2969 9.42969 11.8477 9.42969C12.3984 9.42969 12.8438 9.9375 12.8438 10.5664C12.8438 11.1953 12.3945 11.7031 11.8477 11.7031Z"
      fill="#0D2D62"/>
  </g>
  <defs>
    <clipPath id="clip0_374_855">
      <rect width="20" height="20"/>
    </clipPath>
  </defs>
</svg>
