<svg width="20" height="20" viewBox="0 0 20 20" fill="none" xmlns="http://www.w3.org/2000/svg">
  <rect width="20" height="20" fill="transparent"/>
  <g id="favicon">
    <rect width="20" height="20" rx="2" fill="url(#paint0_radial_13_531)"/>
    <g id="Group 20">
      <g id="Group 19">
        <path id="Vector"
              d="M4.93935 7.05574C4.1388 7.2067 3.48768 7.67846 3.18881 8.30117C3.05005 8.59366 2.97533 9.74475 3.00736 10.9996C3.01803 11.2072 3.06073 11.2166 3.8079 11.2166H4.59778L4.64047 9.98063C4.68317 8.43327 4.6298 8.48044 6.29494 8.48044C7.9921 8.48044 7.92806 8.40496 7.92806 10.4996C7.92806 12.6602 7.98143 12.5847 6.27359 12.5847C5.08878 12.5847 5.01406 12.5753 4.82193 12.3583C4.71519 12.2356 4.61913 12.0375 4.61913 11.9148C4.61913 11.6978 4.5871 11.6884 3.81858 11.6884H3.01803V12.0564C3.01803 12.7263 3.45566 13.3678 4.18149 13.7453C4.65115 13.9906 4.72587 14 6.27359 14C7.72525 14 7.91738 13.9811 8.31232 13.7924C8.84602 13.5377 9.25163 13.132 9.44376 12.6602C9.63589 12.1696 9.63589 8.85785 9.44376 8.37666C9.27298 7.94264 8.67524 7.3954 8.16289 7.19726C7.71458 7.02743 5.56911 6.93308 4.93935 7.05574Z"
              fill="white"/>
        <path id="Vector_2"
              d="M12.6524 7.04929C11.2233 7.32132 10.4182 8.78462 11.0321 10.0134C11.4749 10.9045 12.0687 11.1766 13.5581 11.1859C14.6551 11.1859 15.2489 11.2891 15.3898 11.4861C15.5407 11.7206 15.4703 12.1896 15.2589 12.3678C15.0677 12.5273 14.8463 12.5461 13.0952 12.5742L11.1428 12.6117V13.3059V14H13.1354C14.2224 14 15.2791 13.9625 15.4703 13.9062C16.366 13.6717 17.0101 12.8275 17 11.8895C17 11.2047 16.8692 10.8576 16.4465 10.4543C15.893 9.91962 15.6514 9.84458 14.1117 9.7883C13.3367 9.75078 12.6524 9.6945 12.592 9.65698C12.3404 9.51628 12.3404 8.88781 12.592 8.54074C12.592 8.53136 13.4172 8.50322 14.4136 8.47508L16.2251 8.4188V7.71528V7.01177L14.6148 7.00239C13.7292 6.99301 12.8436 7.01177 12.6524 7.04929Z"
              fill="white"/>
      </g>
    </g>
  </g>
  <defs>
    <radialGradient id="paint0_radial_13_531" cx="0" cy="0" r="1" gradientUnits="userSpaceOnUse"
                    gradientTransform="translate(10 10) rotate(90) scale(10)">
      <stop stop-color="#29549C"/>
      <stop offset="1" stop-color="#0D2D62"/>
    </radialGradient>
  </defs>
</svg>
