<svg width="40" height="40" viewBox="0 0 40 40" fill="none" xmlns="http://www.w3.org/2000/svg">
<circle cx="20" cy="20" r="20" fill="#E7F5FF"/>
<path d="M17.5289 4.78881C16.6792 5.2469 13.5932 6.83929 10.7086 8.32262C7.82388 9.82776 5.18518 11.3111 4.84975 11.6165C4.33543 12.0964 4.22362 12.4236 4.22362 13.2089C4.22362 13.7542 4.26834 14.2123 4.33543 14.2123C4.40251 14.2123 5.31935 13.7542 6.39272 13.1871C7.44373 12.6199 8.27112 12.2709 8.18167 12.4018C8.11459 12.5108 7.17539 13.1871 6.14674 13.9069C4.40251 15.0848 4.22362 15.2594 4.22362 15.9138C4.22362 16.4373 4.31307 16.59 4.51432 16.4809C4.64849 16.3937 6.14674 15.4339 7.80152 14.365C11.29 12.0964 11.2229 12.3363 7.46609 15.3684C5.99021 16.5682 4.60377 17.7461 4.40251 17.9642C3.97764 18.4441 3.84347 19.8838 4.24598 19.8838C4.35779 19.8838 6.28091 18.2914 8.49474 16.3718C10.7086 14.4304 12.5422 12.8817 12.6093 12.9253C12.654 12.9907 10.7309 15.1285 8.3382 17.7025L4 22.3706V23.8757C4 24.7919 4.08945 25.3154 4.22362 25.2282C4.40251 25.1191 8.91961 19.6221 10.3731 17.7243C12.8106 14.5613 15.0468 12.0091 15.4716 11.9219C15.7623 11.8346 18.0656 11.8128 20.6149 11.8564C23.1641 11.9001 25.2438 11.9001 25.2438 11.8564C25.2438 11.7037 20.6596 4.85425 20.2571 4.43979C19.631 3.78539 19.3626 3.82901 17.5289 4.78881Z" fill="url(#paint0_radial_13_441)"/>
<path d="M23.0078 4.89778C23.0078 4.9414 24.6626 8.27889 26.6975 12.3362C28.7325 16.3717 30.3872 19.7747 30.3872 19.8837C30.3872 20.2109 25.7136 27.3658 25.2887 27.6712C24.998 27.9111 25.8925 27.9548 29.9847 27.9548C34.4571 27.9548 35.0832 27.9111 35.5081 27.5621C35.9777 27.1913 35.9777 27.0822 36.0001 19.7092C36.0001 11.3546 36.0448 11.6382 34.4347 10.7656L33.5179 10.2639L33.4955 12.4017C33.4955 14.8448 33.2719 14.6267 32.847 11.7473C32.6011 9.98035 32.534 9.80584 31.9302 9.50045C31.3041 9.19506 31.2817 9.19506 31.2817 9.71859C31.2817 10.024 31.4382 11.3546 31.6395 12.7071C32.1985 16.6771 31.9078 16.5462 30.8568 12.3362L29.8729 8.40977L28.9784 7.90806C28.5088 7.64629 28.084 7.44997 28.0392 7.4936C27.9722 7.55904 28.8666 10.7656 30.5885 16.7644C30.7003 17.157 30.7227 17.4842 30.6332 17.4842C30.5438 17.4842 29.4257 14.9539 28.1734 11.8563L25.8701 6.25022L24.5731 5.53037C23.3209 4.87596 23.0078 4.74508 23.0078 4.89778Z" fill="url(#paint1_radial_13_441)"/>
<path d="M8.02534 22.7632C6.99669 24.3556 5.85624 26.2316 5.47608 26.9078C4.78287 28.1512 4.78287 28.1512 5.2301 28.5656C5.47608 28.8056 8.00298 30.1798 10.8206 31.6195C20.548 36.5712 20.0113 36.3749 21.7779 35.546L22.8065 35.0661L20.7269 34.019C18.2447 32.7975 18.4236 32.6884 21.2189 33.7355C23.4998 34.5862 23.7681 34.608 24.5731 34.1717L25.1322 33.8882L24.5731 33.67C21.7555 32.6012 17.6409 30.9433 17.6857 30.8997C17.7304 30.8561 19.6982 31.3578 22.0686 32.0122L26.3621 33.1901L27.4355 32.6666L28.4865 32.1431L27.6814 31.9249C27.2342 31.8159 24.5508 31.1396 21.7108 30.4416C18.8485 29.7218 16.6123 29.1328 16.7018 29.0892C16.8136 29.0674 19.743 29.4818 23.2314 30.0272C26.7199 30.5725 29.8282 31.0088 30.1189 31.0088C30.6556 31.0088 33.3837 29.7218 33.2048 29.5473C33.1154 29.46 25.736 28.7401 18.9827 28.173C14.3761 27.7804 15.047 28.173 12.6095 24.3338C11.4243 22.4796 10.3286 20.7127 10.1497 20.4073C9.85901 19.862 9.83665 19.9056 8.02534 22.7632Z" fill="url(#paint2_radial_13_441)"/>
<defs>
<radialGradient id="paint0_radial_13_441" cx="0" cy="0" r="1" gradientUnits="userSpaceOnUse" gradientTransform="translate(14.6226 14.6252) scale(10.6277 26.2373)">
<stop stop-color="#0B51C5"/>
<stop offset="1" stop-color="#0D2D62"/>
</radialGradient>
<radialGradient id="paint1_radial_13_441" cx="0" cy="0" r="1" gradientUnits="userSpaceOnUse" gradientTransform="translate(29.5044 16.4045) scale(6.49973 28.5562)">
<stop stop-color="#0B51C5"/>
<stop offset="1" stop-color="#0D2D62"/>
</radialGradient>
<radialGradient id="paint2_radial_13_441" cx="0" cy="0" r="1" gradientUnits="userSpaceOnUse" gradientTransform="translate(19.0677 28.0726) scale(14.1541 19.5991)">
<stop stop-color="#0B51C5"/>
<stop offset="1" stop-color="#0D2D62"/>
</radialGradient>
</defs>
</svg>
